<?xml version="1.0" standalone="no"?>
<!DOCTYPE svg PUBLIC "-//W3C//DTD SVG 20010904//EN"
 "http://www.w3.org/TR/2001/REC-SVG-20010904/DTD/svg10.dtd">
<svg version="1.0" xmlns="http://www.w3.org/2000/svg"
 width="512.000000pt" height="512.000000pt" viewBox="0 0 512.000000 512.000000"
 preserveAspectRatio="xMidYMid meet">

<g transform="translate(0.000000,512.000000) scale(0.100000,-0.100000)"
fill="#000000" stroke="none">
<path d="M2116 4949 c-226 -24 -433 -86 -651 -194 -384 -192 -668 -477 -859
-860 -116 -232 -172 -425 -197 -681 -12 -122 -6 -401 8 -415 8 -8 148 3 157
12 2 2 -1 57 -6 122 -6 66 -7 134 -3 153 l6 34 172 0 173 0 106 -143 c59 -79
116 -151 126 -160 16 -15 55 -17 332 -19 l314 -3 69 -115 c38 -63 78 -129 88
-146 l19 -31 -117 -88 c-189 -141 -173 -115 -173 -277 l0 -138 80 0 80 0 0
100 0 99 143 107 c161 121 177 136 177 172 0 32 -252 457 -280 472 -11 6 -138
10 -329 10 l-310 0 -107 143 c-58 78 -115 150 -126 160 -18 15 -44 17 -225 17
l-205 0 7 48 c22 150 88 348 169 510 50 99 162 272 177 272 5 0 68 -35 139
-77 l129 -78 1 -153 c0 -213 -14 -202 247 -202 l197 0 161 -160 c134 -133 166
-160 190 -160 22 0 102 48 288 172 142 95 263 180 268 189 5 10 9 123 9 251
l0 233 253 253 254 254 64 -32 c71 -36 279 -170 279 -180 0 -4 -99 -89 -219
-189 -121 -101 -222 -189 -225 -198 -12 -30 -4 -57 68 -238 l74 -185 -94 -125
-94 -125 -193 0 -194 0 -174 -130 c-96 -72 -180 -138 -186 -147 -7 -9 -13 -28
-13 -42 0 -29 333 -536 361 -552 10 -5 76 -9 148 -9 l131 0 0 -240 0 -240 80
0 80 0 0 298 0 299 -23 21 c-22 21 -33 22 -178 22 l-154 0 -120 182 c-66 99
-120 187 -120 194 0 7 51 51 114 98 l114 86 202 0 201 0 26 28 c14 15 78 97
142 183 87 117 116 163 116 185 0 17 -32 108 -70 204 -55 138 -67 177 -58 186
103 93 382 314 393 311 22 -9 159 -171 222 -264 156 -227 255 -484 293 -757
l12 -88 66 7 c97 10 95 9 88 74 -62 549 -385 1068 -857 1377 -365 240 -817
349 -1253 303z m337 -159 c129 -11 276 -38 382 -71 l68 -21 -251 -251 -252
-252 0 -235 0 -235 -196 -129 -195 -130 -147 147 -147 147 -178 0 -177 0 0
138 c0 165 15 143 -183 262 l-139 82 29 30 c55 58 209 183 298 240 238 154
528 254 805 277 137 12 153 12 283 1z"/>
<path d="M4400 3440 l0 -80 62 0 63 0 -800 -800 -800 -800 -182 0 -183 0 0
-80 0 -80 217 0 218 0 822 822 823 823 0 -63 0 -62 80 0 80 0 0 175 c0 238 13
225 -225 225 l-175 0 0 -80z"/>
<path d="M457 2624 c-150 -33 -241 -84 -277 -153 -20 -40 -20 -55 -20 -1073
l0 -1033 23 -40 c61 -108 270 -174 512 -161 120 6 234 33 303 71 l42 24 43
-24 c89 -50 188 -69 357 -69 169 0 268 19 358 69 l42 24 43 -24 c89 -50 188
-69 357 -69 131 0 167 3 233 22 44 12 92 29 107 37 25 13 184 15 1180 15
l1151 0 24 25 25 24 0 1151 0 1151 -25 24 -24 25 -351 0 -351 0 -24 -25 -25
-24 0 -376 0 -375 -298 0 -299 0 -21 -23 c-22 -23 -22 -29 -22 -320 l0 -297
-295 0 -296 0 -24 -25 -25 -24 0 -376 0 -375 -80 0 -79 0 -3 429 -3 429 -31
39 c-36 44 -130 95 -224 120 -48 13 -105 18 -220 18 -151 0 -162 -2 -297 -41
-21 -6 -21 -4 -25 129 -3 134 -3 136 -34 174 -40 49 -156 109 -254 129 -109
23 -350 15 -440 -15 -36 -11 -66 -21 -67 -21 -2 0 -3 148 -3 329 0 324 0 328
-23 362 -36 53 -101 96 -190 125 -71 23 -102 27 -232 30 -109 3 -169 -1 -218
-12z m306 -154 c85 -13 182 -50 182 -70 0 -23 -102 -58 -209 -72 -75 -9 -117
-9 -192 0 -107 14 -209 49 -209 72 0 19 98 58 173 69 81 12 176 12 255 1z
m4037 -1030 l0 -1040 -240 0 -240 0 0 1040 0 1040 240 0 240 0 0 -1040z
m-4385 744 c34 -9 117 -18 190 -21 106 -4 148 -1 225 15 52 11 103 23 113 27
16 7 17 0 15 -101 l-3 -109 -47 -23 c-56 -28 -178 -51 -268 -51 -90 0 -212 23
-268 51 l-47 23 -3 108 c-2 100 -1 108 15 103 10 -3 45 -13 78 -22z m30 -405
c118 -25 272 -25 390 0 50 11 98 22 108 26 16 7 17 0 15 -101 l-3 -109 -47
-23 c-56 -28 -178 -51 -268 -51 -90 0 -212 23 -268 51 l-47 23 -3 109 c-2 101
-1 108 15 101 10 -4 59 -15 108 -26z m1118 -109 c85 -13 182 -50 182 -70 0
-23 -102 -58 -209 -72 -75 -9 -117 -9 -192 0 -107 14 -209 49 -209 72 0 19 98
58 173 69 81 12 176 12 255 1z m-1118 -291 c118 -25 272 -25 390 0 50 11 98
22 108 26 16 7 17 0 15 -101 l-3 -109 -47 -23 c-56 -28 -178 -51 -268 -51 -90
0 -212 23 -268 51 l-47 23 -3 109 c-2 101 -1 108 15 101 10 -4 59 -15 108 -26z
m800 0 c118 -25 272 -25 390 0 50 11 98 22 108 26 16 7 17 0 15 -101 l-3 -109
-47 -23 c-56 -28 -178 -51 -268 -51 -90 0 -212 23 -268 51 l-47 23 -3 109 c-2
101 -1 108 15 101 10 -4 59 -15 108 -26z m1118 -109 c85 -13 182 -50 182 -70
0 -23 -102 -58 -209 -72 -75 -9 -117 -9 -192 0 -107 14 -209 49 -209 72 0 19
98 58 173 69 81 12 176 12 255 1z m-1948 -286 c34 -9 117 -18 190 -21 106 -4
148 -1 225 15 52 11 103 23 113 27 16 7 17 0 15 -101 l-3 -109 -47 -23 c-56
-28 -178 -51 -268 -51 -90 0 -212 23 -268 51 l-47 23 -3 108 c-2 100 -1 108
15 103 10 -3 45 -13 78 -22z m800 0 c34 -9 117 -18 190 -21 106 -4 148 -1 225
15 52 11 103 23 113 27 16 7 17 0 15 -101 l-3 -109 -47 -23 c-56 -28 -178 -51
-268 -51 -90 0 -212 23 -268 51 l-47 23 -3 108 c-2 100 -1 108 15 103 10 -3
45 -13 78 -22z m800 0 c34 -9 117 -18 190 -21 106 -4 148 -1 225 15 52 11 103
23 113 27 16 7 17 0 15 -101 l-3 -109 -47 -23 c-56 -28 -178 -51 -268 -51 -90
0 -212 23 -268 51 l-47 23 -3 108 c-2 100 -1 108 15 103 10 -3 45 -13 78 -22z
m-1600 -400 c34 -9 117 -18 190 -21 106 -4 148 -1 225 15 52 11 103 23 113 27
16 7 17 0 15 -101 l-3 -109 -47 -23 c-56 -28 -178 -51 -268 -51 -90 0 -212 23
-268 51 l-47 23 -3 108 c-2 100 -1 108 15 103 10 -3 45 -13 78 -22z m800 0
c34 -9 117 -18 190 -21 106 -4 148 -1 225 15 52 11 103 23 113 27 16 7 17 0
15 -101 l-3 -109 -47 -23 c-56 -28 -178 -51 -268 -51 -90 0 -212 23 -268 51
l-47 23 -3 108 c-2 100 -1 108 15 103 10 -3 45 -13 78 -22z m800 0 c34 -9 117
-18 190 -21 106 -4 148 -1 225 15 52 11 103 23 113 27 16 7 17 0 15 -101 l-3
-109 -47 -23 c-56 -28 -178 -51 -268 -51 -90 0 -212 23 -268 51 l-47 23 -3
108 c-2 100 -1 108 15 103 10 -3 45 -13 78 -22z"/>
<path d="M2240 1680 l0 -80 80 0 80 0 0 80 0 80 -80 0 -80 0 0 -80z"/>
</g>
</svg>
