<?xml version="1.0" standalone="no"?>
<!DOCTYPE svg PUBLIC "-//W3C//DTD SVG 20010904//EN"
 "http://www.w3.org/TR/2001/REC-SVG-20010904/DTD/svg10.dtd">
<svg version="1.0" xmlns="http://www.w3.org/2000/svg"
 width="512.000000pt" height="512.000000pt" viewBox="0 0 512.000000 512.000000"
 preserveAspectRatio="xMidYMid meet">

<g transform="translate(0.000000,512.000000) scale(0.100000,-0.100000)"
fill="#000000" stroke="none">
<path d="M2594 5110 c-55 -22 -72 -108 -31 -155 14 -17 36 -28 63 -32 36 -5
46 -1 75 25 29 26 34 36 33 73 -2 73 -71 117 -140 89z"/>
<path d="M2009 4977 c-569 -283 -867 -921 -717 -1537 27 -113 59 -196 118
-307 l48 -93 -81 0 c-45 0 -120 -5 -166 -10 -196 -22 -362 -156 -424 -343 -20
-58 -21 -87 -25 -469 l-3 -408 -52 0 c-144 -1 -319 -116 -396 -260 -60 -112
-62 -142 -59 -674 3 -480 3 -481 27 -541 66 -166 189 -277 356 -320 148 -38
322 3 436 103 l44 40 44 -39 c158 -140 415 -155 596 -35 l50 33 50 -33 c83
-56 164 -79 280 -78 115 0 180 21 278 85 l58 38 82 -39 c133 -64 219 -83 382
-84 105 0 158 4 210 18 77 20 236 91 274 123 l25 20 55 -45 c288 -234 701
-107 805 247 13 43 16 104 16 288 l0 233 74 72 c172 171 205 413 84 613 l-40
67 175 177 c99 100 178 188 181 201 14 61 76 671 71 693 -4 13 -69 86 -146
163 -127 127 -139 142 -139 175 0 68 -28 135 -80 192 -57 62 -121 95 -200 101
-52 4 -54 5 -169 120 l-117 117 -28 172 c-56 348 -84 452 -162 610 -122 245
-331 463 -568 592 -151 82 -202 90 -252 40 -28 -28 -33 -88 -9 -122 9 -13 53
-40 99 -61 242 -114 461 -333 565 -566 52 -114 78 -214 117 -449 l37 -229
-146 -146 -147 -146 -207 204 -208 205 -5 267 c-5 249 -6 268 -26 294 -38 52
-103 56 -150 9 l-24 -24 0 -258 0 -258 -52 -19 c-66 -23 -148 -103 -173 -169
l-18 -47 -239 0 c-270 0 -296 -5 -324 -63 -20 -42 -13 -79 21 -113 l24 -24
275 0 274 0 21 -32 c11 -18 58 -71 105 -118 48 -46 86 -88 86 -92 0 -5 -11 -8
-24 -8 -13 0 -43 -7 -67 -15 -39 -14 -47 -14 -88 1 -116 40 -291 25 -396 -35
l-49 -28 -40 24 c-105 60 -243 78 -361 47 -76 -21 -131 -21 -155 1 -30 27
-106 145 -148 231 -213 431 -134 949 199 1299 97 102 211 186 337 247 56 28
109 60 117 71 32 46 11 119 -42 146 -37 19 -65 12 -174 -42z m984 -1471 c18
-8 112 -94 210 -193 l177 -178 -70 -70 -70 -70 -190 191 c-179 179 -190 192
-190 228 0 49 15 75 53 91 40 18 41 18 80 1z m1000 -184 l67 -67 -139 -139
-139 -138 -64 25 c-35 15 -84 29 -107 33 l-43 7 173 173 c96 96 176 174 179
174 3 0 36 -30 73 -68z m350 -202 c34 -27 44 -78 24 -116 -9 -16 -90 -103
-180 -193 l-165 -163 -12 38 c-7 22 -26 65 -43 97 l-31 59 150 149 c144 143
152 149 191 149 25 0 50 -7 66 -20z m-2648 -304 c81 -36 93 -37 159 -9 123 51
239 39 329 -36 78 -65 109 -65 183 -5 89 73 200 92 304 52 70 -27 120 -26 195
2 102 38 215 15 303 -61 61 -54 88 -50 195 26 150 107 349 53 439 -118 22 -41
23 -54 31 -502 5 -285 12 -471 19 -488 16 -42 43 -51 168 -58 91 -4 124 -10
157 -27 62 -33 105 -74 138 -134 26 -46 30 -63 30 -133 0 -105 -34 -179 -107
-233 -27 -20 -63 -49 -81 -64 l-32 -26 -5 -294 c-6 -326 -7 -331 -76 -408 -73
-80 -187 -116 -293 -90 -60 14 -138 69 -172 119 -39 61 -61 80 -94 87 -37 7
-79 -11 -110 -46 -36 -41 -151 -109 -229 -135 -192 -64 -407 -35 -592 80 -101
63 -129 62 -199 -10 -71 -74 -129 -100 -225 -100 -95 0 -157 27 -222 96 -76
81 -136 83 -200 5 -85 -101 -240 -132 -360 -73 -58 29 -110 81 -142 145 -11
21 -31 39 -53 49 -56 23 -97 3 -142 -72 -84 -138 -242 -190 -384 -127 -57 26
-123 91 -151 151 -21 45 -21 56 -21 531 l0 485 27 51 c34 64 105 128 165 148
27 9 80 16 124 16 101 0 134 7 163 37 l25 25 3 466 c3 453 4 468 24 513 45 96
128 161 231 179 27 5 136 8 243 6 161 -2 202 -6 235 -20z m2862 -58 c35 -34
63 -67 63 -73 0 -5 -130 -140 -289 -299 l-288 -288 -8 132 -7 133 228 228
c126 126 231 229 234 229 2 0 33 -28 67 -62z m59 -530 l-15 -132 -163 -163
-163 -162 -70 24 c-38 14 -90 25 -115 25 l-45 0 290 290 c223 223 291 286 293
271 2 -11 -4 -80 -12 -153z"/>
<path d="M1230 2627 c-24 -8 -41 -23 -53 -47 -16 -32 -17 -71 -15 -467 l3
-431 24 -26 c45 -48 132 -40 161 13 6 11 10 92 10 190 l0 171 120 0 c118 0
120 0 152 29 44 39 46 98 5 138 -27 27 -31 28 -153 31 l-125 4 3 101 3 102
137 3 137 3 25 30 c37 44 35 96 -5 135 l-30 29 -182 2 c-124 2 -193 -1 -217
-10z"/>
<path d="M1928 2611 l-33 -29 0 -334 c0 -382 3 -400 81 -487 118 -131 283
-173 444 -112 106 40 204 138 230 229 6 22 10 174 10 370 l0 334 -29 29 c-40
40 -89 40 -133 0 l-33 -29 -5 -329 c-6 -377 -3 -363 -95 -408 -70 -35 -138
-30 -200 13 -74 51 -75 57 -75 410 l0 314 -29 29 c-40 40 -89 40 -133 0z"/>
<path d="M2899 2612 l-34 -30 0 -450 0 -450 24 -26 c45 -48 132 -40 161 13 6
12 10 121 10 282 0 225 2 261 14 249 8 -8 91 -127 186 -265 94 -137 182 -260
194 -273 32 -33 92 -39 133 -13 55 35 57 52 47 521 l-9 422 -28 24 c-32 27
-75 31 -116 9 -50 -25 -54 -51 -50 -329 3 -191 1 -252 -7 -243 -7 7 -94 131
-194 277 -100 146 -190 273 -200 283 -9 10 -35 21 -57 24 -35 5 -45 1 -74 -25z"/>
<path d="M1748 1405 c-15 -9 -34 -28 -42 -43 -31 -60 -326 -847 -326 -870 0
-33 60 -92 94 -92 54 0 82 25 115 104 17 41 31 79 31 85 0 8 60 11 185 11 125
0 185 -3 185 -11 0 -6 14 -44 31 -85 33 -79 61 -104 115 -104 34 0 94 59 94
92 0 42 -318 870 -344 897 -30 30 -100 38 -138 16z m110 -471 l49 -129 -95 -3
c-52 -1 -97 0 -100 3 -3 2 17 63 44 134 26 72 49 129 51 127 1 -1 24 -60 51
-132z"/>
<path d="M2830 1409 c-25 -5 -78 -25 -119 -45 -170 -84 -281 -263 -281 -454 0
-325 316 -575 625 -495 107 28 225 116 241 181 10 39 -19 92 -60 109 -42 18
-72 10 -118 -31 -63 -56 -95 -69 -178 -69 -124 0 -219 59 -278 170 -23 43 -27
62 -27 135 0 70 4 93 24 130 32 61 86 116 146 148 43 23 62 27 135 27 76 0 91
-4 147 -33 80 -41 106 -41 149 2 60 60 39 125 -56 175 -105 56 -229 74 -350
50z"/>
<path d="M3529 1391 c-21 -22 -29 -39 -29 -66 0 -76 41 -105 149 -105 l70 0 3
-381 3 -381 34 -30 c29 -26 39 -30 75 -25 27 4 49 15 63 32 23 26 23 26 23
406 l0 379 75 0 c86 0 125 15 143 55 23 51 7 107 -39 131 -22 11 -82 14 -284
14 l-257 0 -29 -29z"/>
<path d="M683 1386 l-28 -24 -3 -447 -3 -446 35 -35 c22 -22 44 -34 60 -34 34
0 81 24 92 47 5 10 11 97 14 193 l5 175 121 3 c116 2 123 4 148 29 36 36 36
100 1 135 -31 32 -62 38 -181 38 l-94 0 0 95 0 95 115 0 c76 0 127 5 149 14
70 29 88 105 37 157 l-29 29 -206 0 c-202 0 -205 0 -233 -24z"/>
</g>
</svg>
