<?xml version="1.0" standalone="no"?>
<!DOCTYPE svg PUBLIC "-//W3C//DTD SVG 20010904//EN"
 "http://www.w3.org/TR/2001/REC-SVG-20010904/DTD/svg10.dtd">
<svg version="1.0" xmlns="http://www.w3.org/2000/svg"
 width="512.000000pt" height="512.000000pt" viewBox="0 0 512.000000 512.000000"
 preserveAspectRatio="xMidYMid meet">

<g transform="translate(0.000000,512.000000) scale(0.100000,-0.100000)"
fill="#000000" stroke="none">
<path d="M1570 5107 c-45 -23 -50 -47 -50 -264 l0 -203 81 0 80 0 -3 215 c-3
199 -4 216 -23 234 -28 27 -56 33 -85 18z"/>
<path d="M3490 5107 c-45 -23 -50 -47 -50 -264 l0 -203 81 0 80 0 -3 215 c-3
199 -4 216 -23 234 -28 27 -56 33 -85 18z"/>
<path d="M2763 4228 c-32 -16 -48 -61 -34 -97 15 -36 48 -51 111 -51 63 0 96
15 111 51 15 37 -2 82 -37 98 -31 14 -121 13 -151 -1z"/>
<path d="M3163 4228 c-32 -16 -48 -61 -34 -97 15 -36 48 -51 111 -51 63 0 96
15 111 51 15 37 -2 82 -37 98 -31 14 -121 13 -151 -1z"/>
<path d="M181 4022 c64 -175 191 -394 315 -544 133 -159 325 -293 492 -341
l52 -16 0 213 0 212 -54 17 c-30 10 -121 61 -203 114 -81 53 -202 130 -268
173 -66 42 -173 111 -237 153 l-118 77 21 -58z"/>
<path d="M4605 3849 c-375 -245 -420 -272 -482 -290 l-43 -12 0 -213 0 -213
53 15 c28 9 88 33 131 55 211 105 388 283 538 544 61 104 152 308 146 326 -2
6 -156 -90 -343 -212z"/>
<path d="M1785 3335 c-25 -24 -25 -24 -25 -240 l0 -215 80 0 80 0 0 215 c0
216 0 216 -25 240 -15 16 -36 25 -55 25 -19 0 -40 -9 -55 -25z"/>
<path d="M2505 3335 c-25 -24 -25 -24 -25 -240 l0 -215 80 0 80 0 0 215 c0
216 0 216 -25 240 -15 16 -36 25 -55 25 -19 0 -40 -9 -55 -25z"/>
<path d="M3305 3335 c-25 -24 -25 -24 -25 -240 l0 -215 80 0 80 0 0 215 c0
216 0 216 -25 240 -15 16 -36 25 -55 25 -19 0 -40 -9 -55 -25z"/>
<path d="M2240 1640 l0 -280 -200 0 -200 0 0 205 c0 130 -4 213 -11 229 -26
55 -112 55 -138 0 -7 -16 -11 -99 -11 -229 l0 -205 -160 0 -160 0 0 205 c0
130 -4 213 -11 229 -26 55 -112 55 -138 0 -7 -16 -11 -99 -11 -229 l0 -205
-600 0 -600 0 0 -80 0 -80 960 0 960 0 0 -240 0 -240 -960 0 -960 0 0 -80 0
-80 960 0 960 0 0 -195 0 -195 -960 0 -960 0 0 -85 0 -85 2560 0 2560 0 0 85
0 85 -960 0 -960 0 0 195 0 195 255 0 256 0 24 25 c33 32 33 78 0 110 l-24 25
-256 0 -255 0 0 240 0 240 960 0 960 0 0 80 0 80 -600 0 -600 0 0 205 c0 130
-4 213 -11 229 -26 55 -112 55 -138 0 -7 -16 -11 -99 -11 -229 l0 -205 -160 0
-160 0 0 205 c0 130 -4 213 -11 229 -26 55 -112 55 -138 0 -7 -16 -11 -99 -11
-229 l0 -205 -200 0 -200 0 0 280 0 280 -320 0 -320 0 0 -280z m800 -680 l0
-240 -480 0 -480 0 0 240 0 240 480 0 480 0 0 -240z m0 -595 l0 -195 -480 0
-480 0 0 195 0 195 480 0 480 0 0 -195z"/>
<path d="M3945 695 c-16 -15 -25 -36 -25 -55 0 -19 9 -40 25 -55 21 -22 33
-25 95 -25 62 0 74 3 95 25 16 15 25 36 25 55 0 19 -9 40 -25 55 -21 22 -33
25 -95 25 -62 0 -74 -3 -95 -25z"/>
<path d="M4345 695 c-16 -15 -25 -36 -25 -55 0 -19 9 -40 25 -55 l24 -25 376
0 375 0 0 80 0 80 -375 0 -376 0 -24 -25z"/>
</g>
</svg>
