<?xml version="1.0" standalone="no"?>
<!DOCTYPE svg PUBLIC "-//W3C//DTD SVG 20010904//EN"
 "http://www.w3.org/TR/2001/REC-SVG-20010904/DTD/svg10.dtd">
<svg version="1.0" xmlns="http://www.w3.org/2000/svg"
 width="512.000000pt" height="512.000000pt" viewBox="0 0 512.000000 512.000000"
 preserveAspectRatio="xMidYMid meet">

<g transform="translate(0.000000,512.000000) scale(0.100000,-0.100000)"
fill="#000000" stroke="none">
<path d="M420 5104 c-205 -44 -364 -208 -407 -422 -43 -209 65 -445 253 -553
l54 -30 0 -359 c0 -228 4 -378 11 -412 32 -149 144 -274 285 -318 57 -17 93
-20 255 -20 l189 0 0 210 0 210 -155 0 -155 0 0 338 c0 186 -2 341 -5 344 -3
3 -25 -1 -48 -9 -23 -8 -68 -17 -99 -20 l-58 -6 0 532 0 531 -27 -1 c-16 0
-57 -7 -93 -15z"/>
<path d="M4490 5109 c-30 -5 -91 -27 -135 -48 -137 -67 -243 -194 -279 -336
-20 -74 -20 -203 -1 -274 34 -128 132 -257 244 -321 l61 -35 0 -342 0 -343
-160 0 -160 0 0 -211 0 -211 203 4 c182 4 208 6 260 27 111 44 207 143 250
258 20 55 22 78 25 440 l4 383 -44 -16 c-24 -8 -71 -19 -105 -23 l-63 -7 0
533 0 533 -22 -1 c-13 -1 -48 -5 -78 -10z"/>
<path d="M2035 3186 c-149 -38 -262 -143 -305 -284 -19 -59 -20 -94 -20 -467
0 -400 0 -402 23 -435 49 -72 115 -95 193 -65 32 12 53 29 72 58 24 35 27 51
30 143 l4 104 104 0 104 0 0 -83 c0 -103 11 -142 52 -184 62 -64 154 -64 216
0 18 18 37 49 42 68 13 43 13 701 1 786 -23 159 -125 286 -275 342 -69 25
-178 33 -241 17z m176 -335 l29 -29 0 -131 0 -131 -105 0 -105 0 0 128 c0 105
3 131 18 148 43 54 117 60 163 15z"/>
<path d="M3090 3189 c-14 -6 -36 -20 -48 -32 -53 -49 -52 -37 -52 -600 l0
-524 23 -33 c36 -54 72 -75 126 -74 58 1 107 27 138 74 l23 33 0 527 0 527
-23 33 c-40 60 -130 93 -187 69z"/>
<path d="M617 2110 c-143 -45 -254 -169 -286 -318 -7 -34 -11 -184 -11 -412
l0 -359 -54 -30 c-135 -78 -236 -231 -258 -392 -39 -293 173 -558 475 -594
l57 -7 0 532 0 533 58 -6 c31 -3 76 -12 99 -20 23 -8 45 -12 48 -9 3 3 5 158
5 344 l0 338 155 0 155 0 0 210 0 210 -192 -1 c-160 0 -203 -3 -251 -19z"/>
<path d="M4060 1921 l0 -211 160 0 160 0 0 -342 -1 -343 -60 -35 c-118 -67
-217 -202 -249 -339 -18 -76 -8 -231 18 -300 50 -128 145 -232 267 -291 67
-33 167 -60 223 -60 9 0 12 113 12 533 l0 533 63 -7 c34 -4 81 -15 105 -23
l44 -16 -4 383 c-3 362 -5 385 -25 440 -43 115 -139 214 -250 258 -52 21 -78
23 -260 27 l-203 4 0 -211z"/>
</g>
</svg>
