<?xml version="1.0" standalone="no"?>
<!DOCTYPE svg PUBLIC "-//W3C//DTD SVG 20010904//EN"
 "http://www.w3.org/TR/2001/REC-SVG-20010904/DTD/svg10.dtd">
<svg version="1.0" xmlns="http://www.w3.org/2000/svg"
 width="512.000000pt" height="512.000000pt" viewBox="0 0 512.000000 512.000000"
 preserveAspectRatio="xMidYMid meet">

<g transform="translate(0.000000,512.000000) scale(0.100000,-0.100000)"
fill="#000000" stroke="none">
<path d="M2425 5104 c-114 -24 -225 -84 -314 -169 -43 -42 -92 -100 -111 -134
-32 -56 -42 -64 -108 -97 -190 -92 -317 -288 -329 -504 -16 -292 170 -542 457
-616 48 -12 92 -15 170 -12 99 5 143 16 253 63 16 7 17 -3 17 -128 l0 -135
-62 -7 c-292 -30 -511 -91 -753 -210 -71 -35 -168 -89 -214 -120 -46 -31 -85
-55 -86 -53 -32 38 -165 210 -165 214 0 3 22 39 48 78 70 105 97 195 97 326 0
131 -27 221 -97 326 -81 121 -194 204 -328 241 -46 12 -82 31 -124 65 -256
205 -631 101 -745 -206 -59 -159 -28 -331 83 -468 26 -32 47 -72 54 -101 87
-345 476 -539 802 -399 l45 19 88 -111 87 -111 -89 -90 c-162 -165 -282 -328
-373 -505 l-43 -85 -5 145 c-4 124 -8 152 -28 191 -36 74 -87 125 -160 161
-60 30 -76 33 -152 33 -66 0 -96 -5 -132 -22 -66 -30 -143 -105 -175 -172
l-28 -56 -3 -355 c-5 -542 22 -721 153 -998 111 -235 170 -308 589 -729 387
-390 390 -392 454 -359 39 20 52 44 52 92 0 35 -16 53 -357 398 -232 233 -379
390 -416 443 -120 169 -205 365 -249 572 -18 83 -21 145 -25 469 -3 205 -2
388 1 407 15 78 98 129 174 107 21 -6 51 -25 67 -42 l30 -31 6 -407 c7 -450 9
-469 74 -610 20 -42 54 -101 77 -131 45 -60 634 -655 677 -683 69 -46 151 6
151 95 0 28 -34 66 -309 342 -170 170 -314 320 -320 332 -18 36 -13 124 9 161
39 63 121 94 193 72 35 -10 86 -56 297 -265 l255 -253 80 -7 c195 -16 343 -83
476 -215 125 -124 208 -257 264 -425 27 -81 55 -240 55 -318 0 -42 5 -54 34
-83 46 -46 86 -46 130 -1 32 31 33 36 40 135 9 135 45 275 100 389 63 130 116
205 215 303 133 132 281 199 476 215 l80 7 255 253 c211 209 262 255 297 265
72 22 154 -9 193 -72 22 -37 27 -125 9 -161 -6 -12 -150 -162 -320 -332 -275
-276 -309 -314 -309 -342 0 -45 19 -82 51 -99 42 -21 72 -17 115 15 57 42 614
607 662 672 23 30 57 89 77 131 65 141 67 160 74 610 l6 407 30 31 c16 17 46
36 67 42 76 22 159 -29 174 -107 3 -19 4 -202 1 -407 -4 -336 -7 -383 -26
-473 -28 -128 -60 -222 -117 -346 -52 -113 -52 -142 -2 -184 34 -29 66 -32
110 -9 53 28 161 285 202 484 31 154 37 263 34 630 l-3 365 -28 56 c-32 67
-109 142 -175 172 -36 17 -66 22 -132 22 -76 0 -92 -3 -152 -33 -73 -36 -124
-87 -160 -161 -20 -39 -24 -67 -28 -191 l-5 -145 -43 83 c-92 178 -205 333
-359 492 l-102 107 87 110 87 110 45 -19 c326 -140 715 54 802 399 7 29 28 69
54 101 111 137 142 309 83 468 -115 310 -491 412 -749 203 -38 -31 -75 -50
-120 -62 -134 -37 -247 -120 -328 -241 -70 -105 -97 -195 -97 -326 0 -131 27
-221 97 -326 26 -39 48 -75 48 -78 0 -4 -121 -162 -165 -214 -1 -1 -40 23 -86
53 -46 31 -142 85 -214 120 -240 119 -460 180 -752 210 l-63 7 0 135 c0 125 1
135 18 128 109 -47 153 -58 252 -63 184 -8 328 48 456 176 195 196 228 496 83
738 -48 79 -152 174 -239 218 -65 32 -77 43 -109 97 -55 93 -172 199 -273 248
-140 67 -279 85 -423 55z m216 -194 c139 -26 267 -125 328 -254 36 -75 51 -88
117 -110 238 -77 345 -364 219 -581 -36 -60 -116 -132 -183 -163 -50 -23 -70
-27 -162 -27 -92 0 -112 3 -160 26 -30 14 -70 38 -88 54 l-33 28 107 108 107
109 -6 42 c-8 56 -43 88 -98 88 -32 0 -47 -7 -84 -41 l-44 -40 -3 191 -3 192
-28 24 c-38 33 -96 33 -134 0 l-28 -24 -3 -242 -3 -243 -93 92 c-88 86 -96 91
-135 91 -57 0 -101 -41 -101 -96 0 -34 10 -47 125 -164 69 -69 125 -129 125
-134 0 -4 -26 -19 -57 -34 -52 -24 -70 -27 -163 -27 -92 0 -112 4 -162 27 -67
31 -147 103 -183 163 -126 217 -19 504 219 581 67 22 79 34 115 111 86 182
295 290 492 253z m-2050 -798 c24 -10 65 -40 90 -67 42 -42 54 -48 118 -60
253 -49 389 -291 300 -531 -31 -82 -131 -182 -213 -213 -244 -91 -493 56 -531
313 -6 40 -18 60 -66 113 -85 94 -106 173 -73 283 21 71 100 152 170 174 61
20 146 15 205 -12z m4139 12 c103 -30 190 -149 190 -259 0 -68 -29 -132 -89
-198 -48 -53 -60 -73 -66 -113 -12 -82 -44 -151 -96 -208 -117 -128 -272 -165
-435 -105 -44 17 -76 39 -125 88 -86 86 -113 150 -113 271 0 112 27 180 99
258 66 72 133 109 227 127 57 11 79 20 99 42 52 56 79 76 131 94 66 23 109 24
178 3z m-1982 -965 c240 -26 503 -107 701 -217 l63 -35 -72 -33 c-253 -117
-403 -337 -417 -609 -4 -81 -1 -117 16 -189 49 -205 163 -347 397 -494 72 -46
142 -94 155 -108 l23 -25 -83 -83 -84 -84 -83 -12 c-201 -29 -381 -119 -529
-265 -93 -92 -215 -262 -252 -350 -10 -25 -20 -45 -23 -45 -3 0 -13 19 -23 43
-25 61 -123 210 -192 291 -67 79 -178 170 -268 220 -81 46 -222 92 -323 106
l-81 12 -103 103 -103 103 6 62 c8 96 53 176 143 257 143 129 188 225 182 388
-3 88 -8 108 -35 168 -43 90 -129 177 -217 218 -51 24 -90 33 -176 42 l-111
12 43 41 c364 349 933 539 1446 483z m1111 -521 c52 -51 119 -124 151 -163
152 -186 285 -443 345 -666 l23 -87 -41 28 c-99 67 -250 78 -359 26 -30 -14
-91 -60 -136 -102 l-82 -76 -36 31 c-19 18 -100 74 -179 125 -194 127 -249
186 -294 317 -108 315 127 655 454 658 l61 1 93 -92z m-2425 -230 c55 -16 138
-99 154 -154 33 -112 2 -196 -111 -297 -82 -73 -148 -164 -173 -239 l-16 -48
-56 46 c-73 60 -130 84 -215 91 -83 7 -179 -16 -236 -58 l-39 -28 23 87 c45
167 133 360 238 520 l61 92 164 0 c100 0 181 -5 206 -12z"/>
<path d="M2308 2201 c-163 -53 -290 -201 -319 -374 -6 -38 -10 -125 -7 -195 3
-117 6 -132 35 -194 116 -248 418 -312 613 -131 46 42 76 84 130 182 38 69 76
145 84 167 36 102 29 217 -18 320 -29 63 -111 153 -170 188 -97 57 -239 72
-348 37z m246 -215 c69 -40 100 -93 104 -178 4 -66 2 -74 -38 -151 -108 -207
-147 -247 -242 -247 -58 0 -95 13 -131 48 -52 49 -57 70 -57 219 0 117 4 145
21 183 64 141 220 198 343 126z"/>
<path d="M4499 772 c-28 -25 -34 -37 -34 -72 0 -35 6 -47 33 -71 44 -40 93
-40 133 0 60 60 27 156 -57 168 -36 5 -46 1 -75 -25z"/>
<path d="M4038 312 c-158 -158 -168 -170 -168 -205 0 -49 13 -73 52 -93 59
-30 80 -17 250 154 86 86 161 168 167 183 22 61 -28 129 -97 129 -34 0 -49
-12 -204 -168z"/>
</g>
</svg>
