<?xml version="1.0" standalone="no"?>
<!DOCTYPE svg PUBLIC "-//W3C//DTD SVG 20010904//EN"
 "http://www.w3.org/TR/2001/REC-SVG-20010904/DTD/svg10.dtd">
<svg version="1.0" xmlns="http://www.w3.org/2000/svg"
 width="512.000000pt" height="512.000000pt" viewBox="0 0 512.000000 512.000000"
 preserveAspectRatio="xMidYMid meet">

<g transform="translate(0.000000,512.000000) scale(0.100000,-0.100000)"
fill="#000000" stroke="none">
<path d="M2380 4940 c-587 -49 -1136 -306 -1531 -717 -362 -377 -582 -830
-655 -1348 -23 -162 -23 -468 0 -630 77 -546 329 -1040 719 -1411 782 -743
1962 -873 2880 -316 170 103 304 209 452 357 664 662 878 1645 549 2522 -163
434 -448 810 -831 1095 -221 164 -536 310 -827 384 -217 55 -540 83 -756 64z
m527 -1015 c52 -93 74 -176 80 -302 l6 -113 88 0 89 0 0 -45 0 -45 -67 0 c-38
0 -78 -3 -90 -6 l-23 -6 0 -259 0 -259 90 0 90 0 0 -45 0 -45 -67 0 c-38 0
-78 -3 -90 -6 l-23 -6 0 -259 0 -259 90 0 90 0 0 -45 0 -45 -90 0 -90 0 -2
-147 c-2 -152 -1 -189 1 -280 1 -48 3 -53 24 -53 30 0 47 15 87 75 44 68 56
75 116 75 l52 0 7 48 c16 116 94 221 204 275 58 28 75 32 146 32 69 0 89 -5
145 -31 78 -37 141 -99 178 -174 23 -47 27 -68 27 -145 0 -77 -4 -98 -27 -147
-55 -118 -170 -196 -300 -206 l-68 -5 0 -36 c-1 -44 -37 -135 -74 -183 -64
-85 -207 -147 -307 -134 -43 6 -48 4 -55 -16 -3 -13 -48 -64 -98 -113 -50 -50
-116 -120 -146 -157 -30 -37 -58 -67 -62 -67 -4 -1 -42 40 -84 90 -42 51 -102
112 -135 135 l-59 44 -52 -40 c-109 -83 -244 -100 -367 -45 -62 28 -140 100
-163 150 -10 23 -15 25 -58 19 -99 -13 -242 49 -306 134 -37 48 -73 139 -74
183 l0 36 -68 5 c-130 10 -245 88 -300 206 -23 49 -27 70 -27 147 0 77 4 98
27 145 37 75 100 137 178 174 56 26 76 31 145 31 95 -1 167 -29 237 -93 l43
-40 30 25 c17 13 63 49 103 80 l72 55 0 512 0 511 24 50 c13 28 36 63 52 79
29 28 102 71 110 63 2 -2 -7 -19 -21 -37 -41 -56 -65 -133 -65 -210 0 -78 10
-87 55 -47 21 18 30 46 55 157 16 74 39 178 51 230 32 145 58 180 131 180 83
0 119 -40 126 -142 l5 -68 88 0 89 0 0 68 c1 142 28 251 91 360 28 50 32 53
66 50 33 -3 39 -9 70 -63z"/>
<path d="M2500 3155 l0 -265 90 0 90 0 0 259 0 259 -22 6 c-13 3 -53 6 -90 6
l-68 0 0 -265z"/>
<path d="M2278 2934 c-4 -3 1 -25 10 -47 15 -37 17 -105 20 -564 2 -360 -1
-529 -8 -543 -13 -25 6 -28 36 -6 18 14 19 31 19 533 0 499 -1 520 -21 573
-18 50 -40 71 -56 54z"/>
<path d="M2500 2535 l0 -265 90 0 90 0 0 259 0 259 -22 6 c-13 3 -53 6 -90 6
l-68 0 0 -265z"/>
<path d="M2078 2722 c-6 -22 1 -44 13 -36 12 7 12 41 0 48 -5 3 -11 -2 -13
-12z"/>
<path d="M2080 2354 c0 -14 4 -23 10 -19 6 3 10 15 10 26 0 10 -4 19 -10 19
-5 0 -10 -12 -10 -26z"/>
<path d="M2500 2031 l0 -148 51 -79 c57 -88 73 -104 105 -104 19 0 22 6 26 63
3 34 3 142 0 240 l-5 177 -88 0 -89 0 0 -149z"/>
<path d="M1852 2128 c-7 -7 -12 -39 -12 -72 0 -58 0 -59 20 -41 15 14 20 31
20 72 0 54 -6 63 -28 41z"/>
<path d="M2050 2071 c-5 -11 -10 -32 -10 -48 0 -24 4 -28 30 -28 27 0 30 3 30
32 0 61 -27 85 -50 44z"/>
<path d="M2094 1556 c-8 -46 0 -56 47 -56 l39 0 0 45 0 45 -40 0 c-37 0 -39
-2 -46 -34z"/>
<path d="M2300 1545 l0 -45 44 0 c50 0 59 14 43 63 -8 23 -14 27 -48 27 l-39
0 0 -45z"/>
</g>
</svg>
